<?xml version="1.0" encoding="UTF-8"?>
<svg id="Capa_2" data-name="Capa 2" xmlns="http://www.w3.org/2000/svg" viewBox="0 0 666.67 644.58">
  <defs>
    <style>
      .cls-1 {
        fill: #6d071c;
      }
    </style>
  </defs>
  <g id="Capa_1-2" data-name="Capa 1">
    <g>
      <path class="cls-1" d="M269.37,47.56c17.67,12.19,34.55,20.23,48.47,22-7.59,15.07-12.88,31.25-15.64,47.98-22.45-4.92-43.74-16.76-61.22-28.82-8.64-5.96-16.82-12.32-24.31-18.57v74.44c0,10.21-6.21,19.39-15.68,23.2l-.21.09c-.21.09-.56.23-1.05.45-.98.42-2.5,1.1-4.45,2.02-3.92,1.85-9.58,4.67-16.21,8.46-13.4,7.66-30.14,18.89-44.73,33.47-15.12,15.12-24.44,35.42-29.7,51.19-6.75,20.22-23.94,38.86-48.41,42.94-3.6.6-6.24,3.71-6.24,7.36v58.43c0,5.51,3.99,10.22,9.43,11.13,20.8,3.47,37.18,17.04,46.39,33.54,8.38,15,23.28,38.15,45.19,60.06,17.03,17.03,36.86,27.95,52.82,34.63,7.91,3.31,14.67,5.49,19.34,6.83,2.33.67,4.13,1.12,5.27,1.38.57.13.97.22,1.2.27l.16.03h.04c11.72,2.31,20.17,12.59,20.17,24.54v41.67c0,4.6,3.73,8.33,8.33,8.33h41.67c0-27.62,22.39-50,50-50h66.67c27.61,0,50,22.38,50,50h41.67c4.6,0,8.33-3.73,8.33-8.33v-75c0-9.43,5.32-18.06,13.73-22.32l.44-.24c.46-.25,1.26-.7,2.34-1.34,2.16-1.29,5.44-3.36,9.48-6.27,8.09-5.84,19.05-14.96,30.03-27.77,21.74-25.37,43.98-65.6,43.98-125.4,0-33.56-6.27-60.68-16.96-82.92,11.93-15.83,20.92-33.65,26.6-52.53,3.31,4.53,6.44,9.23,9.4,14.11,20.14,33.27,30.96,73.44,30.96,121.34,0,73.53-27.76,124.97-56.02,157.93-14.01,16.35-28.06,28.07-38.72,35.77-1.86,1.34-3.62,2.56-5.26,3.67v60.96c0,32.22-26.12,58.33-58.33,58.33h-41.67c-27.61,0-50-22.39-50-50h-66.67c0,27.61-22.39,50-50,50h-41.67c-32.22,0-58.33-26.12-58.33-58.33v-22.75c-4.6-1.55-9.82-3.48-15.48-5.84-19.87-8.32-45.87-22.4-68.87-45.39-26.13-26.13-43.64-53.4-53.49-71.03-2.91-5.2-7.25-7.98-10.96-8.6-29.55-4.92-51.21-30.49-51.21-60.45v-58.43c0-28.09,20.31-52.06,48.02-56.68,2.9-.48,7.17-3.36,9.2-9.45,6.41-19.21,18.85-47.79,41.77-70.71,18.75-18.75,39.51-32.52,55.27-41.53,4.55-2.6,8.73-4.83,12.4-6.7V33.62c0-31.26,37.69-44.1,58-23.87,11.02,10.97,27.01,25.6,44.71,37.81Z"/>
      <path class="cls-1" d="M369,206.18c-16.34-6.76-30.12-19.61-33.4-36.98-11.47-60.72,20.69-123.21,80.03-147.8,68.03-28.19,146.03,4.11,174.22,72.14,24.59,59.35,3.15,126.28-47.89,161.11-14.6,9.97-33.43,9.3-49.77,2.54l-123.19-51.01ZM515.47,212.17c30.65-22.07,43.25-63.11,28.18-99.48-17.62-42.52-66.37-62.71-108.88-45.09-36.37,15.07-56.47,53-50.4,90.28.19.15.43.33.71.51.79.52,1.81,1.09,3.05,1.6l123.19,51.01c1.24.51,2.36.84,3.29,1.02.33.07.62.11.87.14Z"/>
      <path class="cls-1" d="M233.33,244.58c0,18.41-14.92,33.33-33.33,33.33s-33.33-14.92-33.33-33.33,14.92-33.33,33.33-33.33,33.33,14.92,33.33,33.33Z"/>
    </g>
  </g>
</svg>