<?xml version="1.0" encoding="UTF-8"?>
<svg id="Capa_2" data-name="Capa 2" xmlns="http://www.w3.org/2000/svg" viewBox="0 0 800 693.34">
  <defs>
    <style>
      .cls-1 {
        fill: #6d071c;
      }
    </style>
  </defs>
  <g id="Capa_1-2" data-name="Capa 1">
    <path class="cls-1" d="M613.33,666.67l-17.4,20.2c5.06,4.36,11.57,6.66,18.25,6.45l-.84-26.65ZM556.45,575.36c-9.13-11.56-25.9-13.53-37.46-4.41-11.56,9.13-13.53,25.89-4.41,37.46l41.86-33.05ZM577.72,553.52l-9.28-25c-.35.13-.7.27-1.05.42l10.33,24.59ZM485.02,581.01l-4.48-26.29-.44.08,4.91,26.21ZM319.45,580.37l-5.06,26.18.16.03,4.89-26.21ZM225.48,552.89l-9.72,24.83h.03s9.69-24.83,9.69-24.83ZM178.81,531.15l-14.83,22.16c.59.39,1.19.76,1.8,1.1l13.03-23.26ZM173.06,527.95l14.8-22.18c-.92-.62-1.88-1.17-2.88-1.67l-11.93,23.85ZM170.5,526.04l18.86-18.86c-1.75-1.75-3.74-3.25-5.9-4.45l-12.95,23.31ZM285.41,607.12c9.12-11.56,7.15-28.33-4.41-37.46-11.56-9.12-28.33-7.15-37.45,4.42l41.87,33.04ZM186.67,666.67l-.84,26.65c6.79.22,13.4-2.17,18.5-6.66l-17.65-19.99ZM26.67,546.49H0c0,1.43.11,2.85.34,4.26l26.32-4.26ZM118.72,93.8l-16-21.33c-4.08,3.06-7.2,7.23-8.99,12.02l24.99,9.32ZM298.35,26.67l26.55-2.53c-1.28-13.46-12.44-23.84-25.96-24.13l-.58,26.66ZM278.2,96.33c1.4,14.66,14.41,25.41,29.08,24.02,14.66-1.4,25.41-14.41,24.02-29.08l-53.09,5.06ZM466.24,92.96c-1.88,14.61,8.44,27.97,23.05,29.85,14.61,1.88,27.97-8.44,29.85-23.05l-52.9-6.79ZM501.64,26.68L501.06.02c-13.19.29-24.18,10.18-25.86,23.26l26.45,3.4ZM681.27,93.8l24.99-9.32c-1.79-4.78-4.9-8.95-8.99-12.01l-16,21.33ZM773.33,546.49l26.33,4.26c.23-1.41.34-2.83.34-4.26h-26.67ZM345.66,416.08l-26.67-.44v.44h26.67ZM613.33,666.67l17.4-20.2h0s0,0,0,0c0,0-.01-.01-.03-.02-.02-.02-.06-.05-.11-.1-.1-.09-.26-.22-.47-.41-.42-.36-1.03-.9-1.83-1.59-1.61-1.39-3.93-3.42-6.77-5.94-5.71-5.03-13.49-11.98-21.86-19.66-17.32-15.9-35.16-33.19-43.21-43.39l-41.86,33.05c11.13,14.1,32.2,34.2,48.99,49.62,8.69,7.98,16.76,15.18,22.65,20.37,2.95,2.6,5.36,4.7,7.04,6.17.84.74,1.49,1.31,1.95,1.7.22.19.4.35.52.45.06.05.11.09.14.12.02.01.03.02.04.03,0,0,0,0,.01.01h0l17.4-20.2ZM636.57,493.54c-24.52,16.15-47.65,27.38-68.13,34.98l18.55,50.01c24.27-9.01,51.01-22.07,78.91-40.44l-29.33-44.54ZM567.39,528.93c-30.22,12.7-58.94,21.04-86.84,25.79l8.96,52.58c32.19-5.48,64.84-15.03,98.54-29.19l-20.66-49.17ZM480.11,554.8c-57.53,10.79-110.4,7.83-155.76-.64l-9.79,52.43c50.53,9.43,110.17,12.86,175.38.63l-9.83-52.42ZM324.51,554.19c-34.5-6.66-64.24-16.36-89.33-26.15l-19.39,49.69c27.32,10.66,60.22,21.42,98.61,28.83l10.11-52.36ZM235.2,528.05c-13.97-5.47-28.77-12-43.36-20.17l-26.05,46.53c17.37,9.73,34.54,17.26,49.98,23.3l19.44-49.66ZM193.64,508.99c-2.56-1.71-4.98-2.89-5.77-3.29-1.13-.57-.64-.35,0,.07l-29.61,44.36c2.55,1.7,4.97,2.87,5.75,3.26,1.12.57.62.35-.02-.09l29.65-44.33ZM184.98,504.1c1.03.51,2.13,1.21,3.19,2.05.91.73,1.55,1.4,1.19,1.03l-37.71,37.71c1.23,1.24,4.31,4.33,9.49,6.91l23.85-47.7ZM183.45,502.73c-5.28-2.93-9.32-5.39-11.98-7.07-1.33-.84-2.3-1.48-2.9-1.88-.3-.2-.51-.35-.63-.42-.06-.04-.09-.06-.1-.07,0,0,0,0,0,0,0,0,0,.01.02.02,0,0,0,0,.01,0,0,0,0,0,0,0h0s0,0-15.29,21.85q-15.29,21.85-15.29,21.85h0s0,0,0,0c0,0,.01.01.02.02.01.01.03.02.04.03.03.02.07.05.12.08.09.06.21.14.35.23.28.19.66.45,1.14.77.95.63,2.3,1.51,4.01,2.6,3.42,2.16,8.33,5.14,14.55,8.6l25.9-46.62ZM243.54,574.08c-8.14,10.31-26.09,27.99-43.39,44.21-8.38,7.85-16.18,14.97-21.89,20.12-2.85,2.58-5.18,4.66-6.78,6.09-.8.72-1.42,1.27-1.84,1.64-.21.18-.37.33-.47.42-.05.05-.09.08-.11.1-.01.01-.02.02-.03.02,0,0,0,0,0,0h0s0,0,17.65,19.99,17.65,19.99,17.65,19.99c0,0,0,0,0,0,0,0,0,0,.01-.01,0,0,.02-.02.04-.03.03-.03.08-.07.14-.12.12-.11.29-.26.52-.46.45-.4,1.11-.98,1.95-1.73,1.68-1.5,4.08-3.65,7.03-6.31,5.88-5.31,13.94-12.66,22.61-20.79,16.8-15.74,37.76-36.1,48.79-50.09l-41.87-33.04ZM187.51,640.02c-62.17-1.97-94.83-27.81-112.57-51.22-9.2-12.15-14.8-24.24-18.08-33.26-1.63-4.48-2.65-8.12-3.24-10.5-.29-1.18-.48-2.05-.58-2.54-.05-.25-.08-.39-.09-.44,0-.02,0-.02,0,0,0,.02,0,.04.01.06,0,.01,0,.03,0,.04,0,.01,0,.03,0,.03t-26.32,4.29q-26.32,4.26-26.32,4.29s0,.02,0,.03c0,.03,0,.05.01.08,0,.05.02.12.03.19.02.14.05.3.09.5.07.39.17.89.29,1.49.24,1.21.6,2.84,1.09,4.82.98,3.97,2.53,9.41,4.87,15.84,4.65,12.82,12.56,29.93,25.7,47.27,26.94,35.56,74.28,69.81,153.39,72.31l1.69-53.3ZM53.33,546.49c0-99.53,22.35-210.12,45.15-296.75,11.35-43.12,22.7-79.89,31.2-105.86,4.25-12.98,7.78-23.24,10.24-30.22,1.23-3.49,2.19-6.16,2.84-7.94.32-.89.57-1.56.73-1.99.08-.22.14-.38.18-.48.02-.05.03-.09.04-.11,0-.01,0-.02,0-.02,0,0,0,0,0,0t-24.99-9.31q-24.99-9.32-24.99-9.31s0,0,0,.02c0,.01-.01.03-.02.05-.01.04-.03.09-.06.16-.05.14-.12.33-.22.59-.19.51-.46,1.25-.81,2.22-.7,1.94-1.72,4.77-3.01,8.43-2.58,7.32-6.24,17.95-10.62,31.33-8.76,26.75-20.42,64.55-32.09,108.88C23.68,324.43,0,440.18,0,546.49h53.33ZM134.72,115.13c42.64-31.98,84.09-47.42,114.66-54.88,15.29-3.73,27.81-5.45,36.33-6.25,4.25-.4,7.49-.56,9.56-.63,1.03-.03,1.77-.04,2.2-.04.21,0,.35,0,.4,0,.03,0,.03,0,.02,0,0,0-.02,0-.04,0,0,0-.02,0-.03,0h-.02s-.02,0,.56-26.66Q298.94.01,298.92.01s-.02,0-.02,0c-.02,0-.04,0-.05,0-.04,0-.08,0-.13,0-.1,0-.22,0-.36,0-.28,0-.65,0-1.11,0-.9,0-2.14.02-3.68.07-3.08.1-7.4.32-12.8.83-10.78,1-25.91,3.12-44.02,7.54-36.23,8.84-84.6,26.96-134.02,64.03l32,42.67ZM271.81,29.2l6.39,67.13,53.09-5.06-6.39-67.13-53.09,5.06ZM519.14,99.75l8.95-69.68-52.9-6.79-8.95,69.68,52.9,6.79ZM501.64,26.68q.59,26.66.57,26.66h-.02s-.02,0-.03,0c-.02,0-.03,0-.04,0-.01,0,0,0,.02,0,.05,0,.19,0,.4,0,.42,0,1.16.01,2.2.04,2.07.07,5.31.23,9.56.63,8.51.79,21.04,2.52,36.33,6.25,30.57,7.46,72.02,22.9,114.66,54.88l32-42.67c-49.41-37.07-97.78-55.19-134.02-64.03-18.11-4.42-33.24-6.53-44.02-7.54-5.4-.5-9.72-.73-12.8-.83-1.54-.05-2.77-.07-3.68-.07-.45,0-.82,0-1.11,0-.14,0-.26,0-.36,0-.05,0-.09,0-.13,0-.02,0-.04,0-.05,0,0,0-.02,0-.02,0t.56,26.66ZM681.27,93.8q-24.99,9.32-24.99,9.31h0s0,.01,0,.02c.01.02.02.06.04.11.04.1.1.26.18.48.16.44.41,1.1.73,1.99.65,1.78,1.61,4.45,2.83,7.94,2.46,6.98,5.99,17.24,10.24,30.22,8.5,25.97,19.85,62.74,31.2,105.86,22.8,86.63,45.15,197.22,45.15,296.75h53.33c0-106.31-23.68-222.07-46.91-310.32-11.67-44.33-23.33-82.13-32.09-108.88-4.38-13.38-8.04-24.01-10.62-31.33-1.29-3.66-2.3-6.49-3.01-8.43-.35-.97-.62-1.71-.81-2.22-.1-.25-.17-.45-.22-.59-.03-.07-.04-.12-.06-.16,0-.02-.02-.04-.02-.05,0,0,0-.01,0-.01t-24.99,9.31ZM773.33,546.49q-26.33-4.26-26.32-4.29s0-.02,0-.03c0-.02,0-.03,0-.04,0-.03.01-.05.01-.06t0,0s-.03.2-.09.44c-.1.49-.28,1.35-.58,2.54-.59,2.38-1.61,6.02-3.24,10.5-3.27,9.02-8.87,21.11-18.08,33.26-17.74,23.41-50.4,49.25-112.57,51.22l1.69,53.3c79.11-2.5,126.45-36.76,153.39-72.31,13.14-17.34,21.05-34.45,25.7-47.27,2.34-6.43,3.88-11.87,4.86-15.84.5-1.98.85-3.61,1.09-4.82.12-.6.22-1.1.29-1.49.03-.2.06-.36.09-.5.02-.07.03-.13.03-.19,0-.03.01-.05.02-.08,0-.01,0-.03,0-.03t-26.32-4.29ZM280.45,318.46c-53.4,0-91.87,46.24-91.87,97.62h53.33c0-26.6,19.06-44.29,38.53-44.29v-53.33ZM188.59,416.08c0,51.56,39.27,97.63,91.87,97.63v-53.33c-19,0-38.53-17.86-38.53-44.29h-53.33ZM280.45,513.71c53.4,0,91.87-46.24,91.87-97.63h-53.33c0,26.61-19.06,44.29-38.54,44.29v53.33ZM372.32,416.52c.86-52.15-38.85-98.06-91.87-98.06v53.33c19.85,0,38.97,18.01,38.54,43.85l53.33.88ZM513.79,318.46c-53.4,0-91.88,46.23-91.88,97.62h53.33c0-26.6,19.06-44.29,38.54-44.29v-53.33ZM421.91,416.08c0,51.57,39.28,97.63,91.88,97.63v-53.33c-19,0-38.54-17.87-38.54-44.29h-53.33ZM513.79,513.71c53.4,0,91.87-46.24,91.87-97.63h-53.33c0,26.61-19.06,44.29-38.53,44.29v53.33ZM605.66,416.08c0-51.38-38.47-97.62-91.87-97.62v53.33c19.48,0,38.53,17.69,38.53,44.29h53.33ZM199.43,183.42c76.96-41.97,139.64-61.56,200.69-61.59,61.03-.03,123.62,19.48,200.39,61.56l25.63-46.77c-81.21-44.51-152.82-68.16-226.05-68.13-73.22.04-144.88,23.75-226.2,68.1l25.54,46.82Z"/>
  </g>
</svg>