<?xml version="1.0" encoding="UTF-8"?>
<svg id="Capa_2" data-name="Capa 2" xmlns="http://www.w3.org/2000/svg" viewBox="0 0 566.7 566.7">
  <defs>
    <style>
      .cls-1 {
        fill-rule: evenodd;
      }

      .cls-1, .cls-2 {
        fill: #6d071c;
      }
    </style>
  </defs>
  <g id="Capa_1-2" data-name="Capa 1">
    <g>
      <path class="cls-1" d="M283.35,437.91c85.36,0,154.56-69.2,154.56-154.56s-69.2-154.56-154.56-154.56-154.56,69.2-154.56,154.56,69.2,154.56,154.56,154.56ZM283.35,386.39c56.9,0,103.04-46.13,103.04-103.04s-46.13-103.04-103.04-103.04-103.04,46.13-103.04,103.04,46.13,103.04,103.04,103.04Z"/>
      <path class="cls-2" d="M437.91,103.04c-14.23,0-25.76,11.53-25.76,25.76s11.53,25.76,25.76,25.76,25.76-11.53,25.76-25.76-11.53-25.76-25.76-25.76Z"/>
      <path class="cls-1" d="M16.85,84.39C0,117.45,0,160.73,0,247.29v72.13c0,86.56,0,129.84,16.85,162.9,14.82,29.08,38.46,52.73,67.54,67.54,33.06,16.85,76.34,16.85,162.9,16.85h72.13c86.56,0,129.84,0,162.9-16.85,29.08-14.82,52.73-38.46,67.54-67.54,16.85-33.06,16.85-76.34,16.85-162.9v-72.13c0-86.56,0-129.84-16.85-162.9-14.82-29.08-38.46-52.73-67.54-67.54C449.25,0,405.97,0,319.41,0h-72.13C160.73,0,117.45,0,84.39,16.85,55.31,31.66,31.66,55.31,16.85,84.39ZM319.41,51.52h-72.13c-44.13,0-74.13.04-97.32,1.93-22.59,1.85-34.14,5.19-42.19,9.3-19.39,9.88-35.15,25.64-45.03,45.03-4.11,8.06-7.45,19.61-9.3,42.19-1.89,23.19-1.93,53.19-1.93,97.32v72.13c0,44.13.04,74.13,1.93,97.32,1.85,22.59,5.19,34.14,9.3,42.2,9.88,19.39,25.64,35.15,45.03,45.03,8.06,4.11,19.61,7.45,42.19,9.3,23.19,1.89,53.19,1.93,97.32,1.93h72.13c44.13,0,74.13-.04,97.32-1.93,22.59-1.84,34.14-5.19,42.2-9.3,19.39-9.88,35.15-25.64,45.03-45.03,4.11-8.06,7.45-19.61,9.3-42.2,1.89-23.19,1.93-53.19,1.93-97.32v-72.13c0-44.13-.04-74.13-1.93-97.32-1.84-22.59-5.19-34.14-9.3-42.19-9.88-19.39-25.64-35.15-45.03-45.03-8.06-4.11-19.61-7.45-42.2-9.3-23.19-1.89-53.19-1.93-97.32-1.93Z"/>
    </g>
  </g>
</svg>