<?xml version="1.0" encoding="UTF-8"?>
<svg id="Capa_2" data-name="Capa 2" xmlns="http://www.w3.org/2000/svg" viewBox="0 0 918.64 918.64">
  <g id="Capa_1-2" data-name="Capa 1">
    <path d="M459.32,918.64c-153.61,0-296.39-76.3-381.95-204.11-14.11-21.08-8.46-49.61,12.62-63.72,21.08-14.11,49.61-8.46,63.72,12.62,68.46,102.28,182.71,163.35,305.6,163.35,202.61,0,367.46-164.84,367.46-367.46S661.93,91.86,459.32,91.86c-122.89,0-237.14,61.06-305.6,163.35-14.11,21.08-42.64,26.73-63.72,12.62-21.08-14.11-26.73-42.64-12.62-63.72C162.92,76.3,305.71,0,459.32,0c61.99,0,122.15,12.15,178.8,36.11,54.7,23.14,103.82,56.25,145.99,98.42,42.17,42.17,75.28,91.29,98.42,145.99,23.96,56.66,36.11,116.81,36.11,178.8s-12.15,122.15-36.11,178.8c-23.14,54.7-56.25,103.82-98.42,145.99-42.17,42.17-91.28,75.28-145.99,98.42-56.66,23.96-116.82,36.11-178.8,36.11ZM413.39,688.98c-11.76,0-23.51-4.49-32.48-13.45-17.94-17.94-17.94-47.02,0-64.96l105.32-105.32H45.93c-25.37,0-45.93-20.56-45.93-45.93s20.56-45.93,45.93-45.93h440.29l-105.32-105.32c-17.94-17.94-17.94-47.02,0-64.96,17.94-17.94,47.02-17.94,64.96,0l183.73,183.73c4.78,4.78,8.28,10.34,10.51,16.28,1.53,4.05,2.5,8.38,2.82,12.88,0,.01,0,.03,0,.04,0,.02,0,.04,0,.06.08,1.07.11,2.15.11,3.22s-.04,2.15-.11,3.22c0,.02,0,.04,0,.06,0,.01,0,.03,0,.04-.32,4.51-1.29,8.83-2.82,12.88-2.23,5.94-5.74,11.5-10.51,16.28l-183.73,183.73c-8.97,8.97-20.72,13.45-32.48,13.45Z"/>
  </g>
</svg>