<?xml version="1.0" encoding="UTF-8"?>
<svg id="Capa_2" data-name="Capa 2" xmlns="http://www.w3.org/2000/svg" viewBox="0 0 744.92 750.01">
  <defs>
    <style>
      .cls-1 {
        fill: #6d071c;
      }
    </style>
  </defs>
  <g id="Capa_1-2" data-name="Capa 1">
    <g>
      <path class="cls-1" d="M541.5,449.51c-9.5-4.5-55-27-63.5-30.5s-14.5-4.5-21,5-24,30-29.5,36.5-10.5,7-20,0c-27.29-10.95-52.49-26.51-74.5-46-19.93-18.76-36.8-40.52-50-64.5-5.5-9,0-14,4-19s9-10.5,14-16c3.66-4.76,6.68-9.97,9-15.5,2.51-5.21,2.51-11.29,0-16.5,0-4.5-21-50-29-68.5s-15-16-20.5-16h-20c-9.53.37-18.52,4.51-25,11.5-21.15,20.18-32.93,48.27-32.5,77.5,2.56,35.5,15.61,69.44,37.5,97.5,40.17,59.67,95.12,107.91,159.5,140,22,9.5,39,15,52.5,19.5,18.96,5.73,38.99,6.93,58.5,3.5,26.19-5.31,49-21.24,63-44,5.77-13.9,7.67-29.11,5.5-44-2.5-3.5-8.5-6-18-10.5Z"/>
      <path class="cls-1" d="M635,109.01C565.14,38.49,469.76-.81,370.5.01,165.05,1.09-.62,168.51.45,373.95c.34,64.45,17.41,127.7,49.55,183.56L0,750.01l197-50c54.46,29.64,115.5,45.11,177.5,45h-4c205.45,1.34,373.08-164.12,374.42-369.57.65-99.97-38.96-196-109.92-266.43h0ZM370.5,681.01c-55.47.04-109.91-14.99-157.5-43.5l-11-6.5-117,30.5,31-114-7-11.5C18.98,391.03,63.52,200.53,208.5,110.5c121.5-75.45,278.9-57.65,380.5,43.01,58.23,57.76,90.84,136.48,90.5,218.5-.28,170.54-138.46,308.72-309,309Z"/>
    </g>
  </g>
</svg>